<?xml version="1.0" encoding="iso-8859-1"?>
<!-- Generator: Adobe Illustrator 19.0.0, SVG Export Plug-In . SVG Version: 6.00 Build 0)  -->
<svg version="1.1" id="Capa_1" xmlns="http://www.w3.org/2000/svg" xmlns:xlink="http://www.w3.org/1999/xlink" x="0px" y="0px"
	 viewBox="0 0 510.261 510.261" style="enable-background:new 0 0 510.261 510.261;" xml:space="preserve">
<g>
	<polygon style="fill:#FFE100;" points="485.855,172.87 321.426,8.432 47.378,282.489 266.625,501.727 485.855,282.489 	"/>
	<polygon style="fill:#FFFFFF;" points="82.83,282.486 323.069,6.791 319.075,6.791 49.345,282.486 268.592,501.725 
		271.869,501.725 	"/>
	<polygon style="fill:#FDCC00;" points="485.855,282.486 431.045,227.677 485.855,172.867 	"/>
	<polygon style="fill:#FFA800;" points="320.772,8.436 323.076,15.331 459.609,171.227 459.609,280.846 271.876,487.779 
		265.962,501.731 485.209,282.484 485.209,172.874 	"/>
	<g>
		<path d="M443.113,227.678l34.21,34.21v-68.42L443.113,227.678z M485.857,291.021c-2.219,0-4.403-0.87-6.033-2.5l-54.81-54.81
			c-3.337-3.337-3.337-8.73,0-12.066l54.81-54.81c2.441-2.441,6.11-3.174,9.301-1.852s5.265,4.437,5.265,7.885v109.619
			c0,3.447-2.074,6.562-5.265,7.885C488.067,290.808,486.957,291.021,485.857,291.021L485.857,291.021z"/>
		<path d="M259.071,80.753c0,4.71-3.814,8.533-8.533,8.533s-8.533-3.823-8.533-8.533c0-4.719,3.814-8.533,8.533-8.533
			S259.071,76.034,259.071,80.753"/>
		<path d="M266.622,510.261c-2.27,0-4.437-0.896-6.033-2.5L41.35,288.523c-3.337-3.337-3.337-8.738,0-12.066L219.731,98.067
			c3.337-3.328,8.73-3.328,12.066,0c3.337,3.337,3.337,8.738,0,12.066L59.449,282.49l207.172,207.172l210.697-210.705V176.403
			L321.431,20.499l-41.498,41.506c-3.337,3.328-8.738,3.328-12.066,0c-3.337-3.337-3.337-8.738,0-12.066L315.398,2.4
			c3.2-3.2,8.866-3.2,12.066,0l164.42,164.437c1.604,1.596,2.5,3.763,2.5,6.033V282.49c0,2.261-0.896,4.429-2.5,6.033
			l-219.23,219.238C271.059,509.365,268.892,510.261,266.622,510.261"/>
		<path d="M468.138,459.061h-93.867c-4.719,0-8.533-3.814-8.533-8.533c0-4.719,3.814-8.533,8.533-8.533h93.867
			c4.719,0,8.533,3.814,8.533,8.533C476.671,455.247,472.857,459.061,468.138,459.061"/>
		<path d="M220.671,390.795H50.005c-4.719,0-8.533-3.814-8.533-8.533s3.814-8.533,8.533-8.533h170.667
			c4.719,0,8.533,3.814,8.533,8.533S225.39,390.795,220.671,390.795"/>
		<path d="M229.205,185.995h-204.8c-4.719,0-8.533-3.814-8.533-8.533c0-4.719,3.814-8.533,8.533-8.533h204.8
			c4.719,0,8.533,3.814,8.533,8.533C237.738,182.18,233.924,185.995,229.205,185.995"/>
		<path d="M143.871,117.728H32.938c-4.719,0-8.533-3.814-8.533-8.533c0-4.719,3.814-8.533,8.533-8.533h110.933
			c4.719,0,8.533,3.814,8.533,8.533C152.405,113.914,148.59,117.728,143.871,117.728"/>
		<path d="M237.738,49.461h-93.867c-4.719,0-8.533-3.814-8.533-8.533s3.814-8.533,8.533-8.533h93.867
			c4.719,0,8.533,3.814,8.533,8.533S242.457,49.461,237.738,49.461"/>
	</g>
</g>
<g>
</g>
<g>
</g>
<g>
</g>
<g>
</g>
<g>
</g>
<g>
</g>
<g>
</g>
<g>
</g>
<g>
</g>
<g>
</g>
<g>
</g>
<g>
</g>
<g>
</g>
<g>
</g>
<g>
</g>
</svg>
